<svg id="Layer_1" data-name="Layer 1" xmlns="http://www.w3.org/2000/svg" viewBox="0 0 100 100"><defs><style>.cls-1{stroke:#fff;stroke-miterlimit:10;stroke-width:2px;}</style></defs><title>Artboard 1</title><path class="cls-1" d="M97.14,48.43l-16.58-15A2.08,2.08,0,0,0,77.08,35v8.74H56.25V22.9H65a2,2,0,0,0,2.13-2.09,2.09,2.09,0,0,0-.93-1.73L51.54,2.85a2.16,2.16,0,0,0-3.09,0l-15,16.57a2.05,2.05,0,0,0-.36,2.24A2.09,2.09,0,0,0,35,22.9h8.75V43.73H22.92V35a2.13,2.13,0,0,0-1.24-1.91,2.08,2.08,0,0,0-2.24.37l-16.58,15A2.08,2.08,0,0,0,2.18,50a2.1,2.1,0,0,0,.68,1.55l16.58,15A2.08,2.08,0,0,0,22.92,65V56.23H43.75V77.06H35a2.08,2.08,0,0,0-1.9,1.24,2.11,2.11,0,0,0,.36,2.25l15,16.57a2.07,2.07,0,0,0,3.09,0l15-16.57A2.09,2.09,0,0,0,65,77.06H56.25V56.23H77.08V65a2.09,2.09,0,0,0,3.48,1.55l16.58-15A2.1,2.1,0,0,0,97.82,50a2.12,2.12,0,0,0-.68-1.55Z"/></svg>