<svg id="Layer_1" data-name="Layer 1" xmlns="http://www.w3.org/2000/svg" viewBox="0 0 100 100"><defs><style>.cls-1{fill:#fff;}</style></defs><title>6Artboard 1</title><path class="cls-1" d="M40.6,75A34.4,34.4,0,1,1,75,40.6,34.4,34.4,0,0,1,40.6,75Zm0-62.5A28.1,28.1,0,1,0,68.7,40.6,28.12,28.12,0,0,0,40.6,12.5Z"/><path class="cls-1" d="M84.4,93.8a9.38,9.38,0,0,1-6.6-2.7L55.7,69a3.11,3.11,0,0,1,4.4-4.4L82.2,86.7c1.7,1.7,5.3.4,5.3-2.2a2.79,2.79,0,0,0-.9-2.2L64.5,60.1a3.11,3.11,0,0,1,4.4-4.4L91,77.7a9.14,9.14,0,0,1,2.7,6.6A9.39,9.39,0,0,1,84.4,93.8Z"/><path class="cls-1" d="M40.6,56.2a3.12,3.12,0,0,1-3.1-3.1v-25a3.1,3.1,0,0,1,6.2,0v25A3.05,3.05,0,0,1,40.6,56.2Z"/><path class="cls-1" d="M53.1,43.8h-25a3.1,3.1,0,0,1,0-6.2h25a3.1,3.1,0,1,1,0,6.2Z"/></svg>