<svg id="Layer_1" data-name="Layer 1" xmlns="http://www.w3.org/2000/svg" viewBox="0 0 100 100"><defs><style>.cls-1{fill:#fff;}</style></defs><title>out-Artboard 1</title><rect class="cls-1" width="100" height="100" rx="10"/><path d="M40.62,75A34.38,34.38,0,1,1,75,40.62,34.42,34.42,0,0,1,40.62,75Zm0-62.5A28.13,28.13,0,1,0,68.75,40.62,28.16,28.16,0,0,0,40.62,12.5Z"/><path d="M84.38,93.75A9.33,9.33,0,0,1,77.73,91L55.67,69a3.13,3.13,0,0,1,4.42-4.42L82.15,86.6c1.73,1.73,5.34.36,5.35-2.22a3.1,3.1,0,0,0-.9-2.23L64.54,60.09A3.13,3.13,0,0,1,69,55.67L91,77.73a9.4,9.4,0,0,1-6.64,16Z"/><path d="M53.12,43.75h-25a3.13,3.13,0,0,1,0-6.25h25a3.13,3.13,0,1,1,0,6.25Z"/></svg>